<?xml version="1.0" encoding="UTF-8" standalone="no"?>
<!-- Created with Inkscape (http://www.inkscape.org/) -->

<svg
   width="32"
   height="32"
   viewBox="0 0 32 32"
   version="1.1"
   id="svg1"
   xmlns="http://www.w3.org/2000/svg"
   xmlns:svg="http://www.w3.org/2000/svg">
  <defs
     id="defs1" />
  <g
     id="layer1"
     transform="translate(-14.742939,-11.468561)">
    <path
       d="m 35.370534,32.120626 h -0.07786 q -1.44037,3.503652 -4.476824,3.503652 -2.335729,0 -3.698241,-2.02433 -1.362504,-2.043794 -1.362504,-5.469584 0,-4.009735 1.888044,-6.462289 1.888051,-2.472023 4.963434,-2.472023 2.666623,0 4.982891,0.914846 l -0.428217,8.09732 q -0.03908,0.739665 -0.03908,1.343067 v 0.136252 q 0,3.42579 1.401441,3.42579 1.946442,0 1.946442,-7.45499 0,-5.411191 -2.160556,-8.486619 -2.16054,-3.075424 -5.81986,-3.075424 -4.398961,0 -6.870946,3.737227 -2.45252,3.737227 -2.45252,10.25791 0,6.07299 2.510914,9.401457 2.530378,3.309003 7.182375,3.309003 3.523068,0 6.734691,-1.518252 v 2.588814 q -3.075375,1.596106 -6.851474,1.596106 -5.800403,0 -9.070431,-4.029199 -3.250564,-4.029196 -3.250564,-11.231146 0,-7.727489 3.250564,-12.223842 3.25056,-4.515813 8.856321,-4.515813 4.827178,0 7.707915,3.815081 2.900201,3.815089 2.900201,10.413626 0,4.496353 -1.245728,7.221415 -1.245725,2.705594 -3.464666,2.705594 -2.49145,0 -3.055915,-3.503649 z M 34.455706,22.11576 q -1.051079,-0.408775 -2.004839,-0.408775 -1.732331,0 -2.66663,1.829684 -0.914823,1.810216 -0.914823,4.67153 0,4.905113 2.471977,4.905113 2.549839,0 2.822347,-6.072994 z"
       id="text1"
       style="-inkscape-font-specification:'Noto Mono';stroke-width:1.24573;fill:#ffffff"
       aria-label="@" />
  </g>
</svg>
